<mxfile host="app.diagrams.net" modified="2024-03-22T21:01:01.019Z" agent="Mozilla/5.0 (Macintosh; Intel Mac OS X 10_15_7) AppleWebKit/537.36 (KHTML, like Gecko) Chrome/119.0.0.0 Safari/537.36" version="24.0.8" etag="TSPvUJlOpIpCDOVAA4IO" type="github">
  <diagram name="Page-1" id="_QiBhrfd16QJceg2HKCt">
    <mxGraphModel>
      <root>
        <mxCell id="0" />
        <mxCell id="1" parent="0" />
      </root>
    </mxGraphModel>
  </diagram>
</mxfile>
